<svg width="22" height="23" viewBox="0 0 22 23" fill="none" xmlns="http://www.w3.org/2000/svg">
<path d="M21.5937 4.625V18.9335C21.5937 21.3477 20.375 22.5665 17.914 22.5665H3.69922C1.25 22.5665 0.0195312 21.3594 0.0195312 18.9335V4.625C0.0195312 2.19922 1.25 0.992188 3.69922 0.992188H17.914C20.375 0.992188 21.5937 2.21094 21.5937 4.625ZM10.2383 5.51563V6.34766C8.41015 6.54687 7.10937 7.69531 7.10937 9.34766C7.10937 10.8828 8.14062 11.7969 10.1562 12.2774L10.2383 12.3007V15.8632C9.16015 15.7109 8.52734 15.1016 8.32812 14.3047C8.19922 13.8829 7.94141 13.6953 7.57812 13.6953C7.16797 13.6953 6.875 13.9882 6.875 14.4101C6.875 14.539 6.89844 14.6679 6.93359 14.7851C7.27344 16.1796 8.62109 17.0704 10.2383 17.2227V18.0898C10.2383 18.4296 10.4843 18.664 10.8125 18.664C11.1406 18.664 11.3984 18.4296 11.3984 18.0898V17.246C13.2617 17.0704 14.7148 15.9805 14.7148 14.1524C14.7148 12.5118 13.6484 11.5156 11.5507 11.1406L11.3984 11.1054V7.74219C12.2539 7.89453 12.8515 8.41016 13.0976 9.21875C13.2148 9.58203 13.4492 9.81641 13.8359 9.81641C14.2461 9.81641 14.5507 9.52344 14.5507 9.10156C14.5507 8.98437 14.5156 8.85547 14.4922 8.72656C14.1757 7.42578 12.9453 6.52344 11.3984 6.34766V5.51563C11.3984 5.17578 11.1406 4.94141 10.8125 4.94141C10.4843 4.94141 10.2383 5.17578 10.2383 5.51563ZM11.6445 12.6524C12.8164 12.9688 13.2265 13.4727 13.2265 14.2344C13.2265 15.0781 12.6289 15.7226 11.3984 15.8632V12.5821L11.6445 12.6524ZM10.2383 10.8008L10.1562 10.7773C9.08984 10.4609 8.60937 9.98047 8.60937 9.26563C8.60937 8.53906 9.21875 7.91797 10.2383 7.74219V10.8008Z" fill="#F2CB57" fill-opacity="0.85"/>
</svg>
