<svg width="31" height="34" viewBox="0 0 31 34" fill="none" xmlns="http://www.w3.org/2000/svg">
<g clip-path="url(#clip0_2345_132154)">
<path d="M26.3515 13.9941C28.6367 14.9199 30.0546 16.8652 30.0546 19.2324C30.0546 22.0684 27.8985 24.2363 24.3008 24.2363H18.5704V22.3496H24.289C26.8554 22.3496 28.1679 21.0371 28.1679 19.2324C28.1679 17.2051 26.7968 15.8691 24.664 15.4004C24.5234 15.3769 24.4648 15.2832 24.4765 15.1309C24.5234 14.5801 24.5586 13.9473 24.5235 13.4199C24.3243 9.92773 21.6641 6.88086 17.8204 6.88086C14.7852 6.88086 13.0391 8.55664 11.9024 10.584C11.8321 10.7129 11.75 10.7363 11.6094 10.6895C9.19531 9.98632 6.60547 10.9824 6.60547 14.5801C6.60547 14.7324 6.54687 14.8262 6.38281 14.8262C3.89844 14.8262 2.48047 16.4902 2.48047 18.7285C2.48047 20.7441 3.93359 22.3496 6.71094 22.3496H12.1835V24.2363H6.72266C2.87891 24.2363 0.59375 21.7754 0.59375 18.7285C0.59375 15.9629 2.24609 13.7949 4.89453 13.3848C4.95313 10.0918 8.31641 8.02929 10.9766 8.74414C12.3828 6.69336 14.6446 4.99414 17.8204 4.99414C22.6133 4.99414 26.3749 8.76758 26.3515 13.9941Z" fill="#F2CB57" fill-opacity="0.85"/>
<path d="M15.3828 31.1973C15.6171 31.1973 15.8046 31.1035 16.0507 30.8809L20.0117 27.1777C20.1992 27.0137 20.2929 26.8145 20.2929 26.5566C20.2929 26.0879 19.9179 25.7363 19.4375 25.7363C19.2148 25.7363 18.9804 25.8418 18.8046 26.0176L17.0234 27.7988L16.2382 28.6191L16.3085 26.873V16.8184C16.3085 16.3262 15.8867 15.9043 15.3828 15.9043C14.8789 15.9043 14.4453 16.3262 14.4453 16.8184V26.873L14.5156 28.6309L13.7304 27.7988L11.9492 26.0176C11.7734 25.8418 11.5273 25.7363 11.3046 25.7363C10.8125 25.7363 10.4609 26.0879 10.4609 26.5566C10.4609 26.8145 10.543 27.0137 10.7421 27.1777L14.7031 30.8809C14.9492 31.1035 15.1367 31.1973 15.3828 31.1973Z" fill="#F2CB57" fill-opacity="0.85"/>
</g>
<defs>
<clipPath id="clip0_2345_132154">
<rect width="29.8125" height="32.6133" fill="white" transform="translate(0.59375 0.845703)"/>
</clipPath>
</defs>
</svg>
