<svg width="17" height="17" viewBox="0 0 15 14" fill="none" xmlns="http://www.w3.org/2000/svg">
<g clip-path="url(#clip0_22_126)">
<path d="M1.61638 13.645H8.18965C9.24565 13.645 9.80602 13.088 9.80602 11.9881V7.19147C9.80602 6.09844 9.24565 5.54152 8.18965 5.54152H1.61638C0.560343 5.54152 0 6.09844 0 7.19147V11.9881C0 13.088 0.560343 13.645 1.61638 13.645ZM7.49283 6.08454H8.62784V3.73844C8.62784 1.97712 9.79167 1.05122 11.1351 1.05122C12.4784 1.05122 13.6422 1.97712 13.6422 3.73844V5.28394C13.6422 5.69468 13.8937 5.90353 14.2169 5.90353C14.5258 5.90353 14.7845 5.71556 14.7845 5.28394V3.88463C14.7845 1.26703 13.0101 0 11.1351 0C9.25289 0 7.49283 1.26703 7.49283 3.88463V6.08454Z" fill="#F2CB57" fill-opacity="0.85"/>
</g>
<defs>
<clipPath id="clip0_22_126">
<rect width="15" height="14" fill="white"/>
</clipPath>
</defs>
</svg>
