<svg width="12" height="16" viewBox="0 0 10 14" fill="none" xmlns="http://www.w3.org/2000/svg">
<g clip-path="url(#clip0_22_138)">
<path d="M1.6129 13.6318H8.17204C9.22576 13.6318 9.78492 13.0759 9.78492 11.9781V7.19106C9.78492 6.09327 9.22576 5.54441 8.17204 5.54441H1.6129C0.559138 5.54441 0 6.09327 0 7.19106V11.9781C0 13.0759 0.559138 13.6318 1.6129 13.6318ZM1.25448 6.0794H2.39426V3.73102C2.39426 1.98015 3.54838 1.04913 4.88888 1.04913C6.22938 1.04913 7.39786 1.98015 7.39786 3.73102V6.0794H8.53044V3.88387C8.53044 1.27146 6.76701 0 4.88888 0C3.01791 0 1.25448 1.27146 1.25448 3.88387V6.0794Z" fill="#444444" fill-opacity="0.85"/>
</g>
<defs>
<clipPath id="clip0_22_138">
<rect width="10" height="14" fill="white"/>
</clipPath>
</defs>
</svg>
